<?xml version="1.0" standalone="no"?>
<!DOCTYPE svg PUBLIC "-//W3C//DTD SVG 20010904//EN"
 "http://www.w3.org/TR/2001/REC-SVG-20010904/DTD/svg10.dtd">
<svg version="1.0" xmlns="http://www.w3.org/2000/svg"
 width="280.000000pt" height="252.000000pt" viewBox="0 0 280.000000 252.000000"
 preserveAspectRatio="xMidYMid meet">

<g transform="translate(0.000000,252.000000) scale(0.100000,-0.100000)"
fill="#000000" stroke="none">
<path d="M1070 2047 l-405 -242 -3 -95 -3 -95 403 -243 c221 -133 408 -240
415 -238 9 4 13 28 13 78 l-1 73 -342 206 c-188 114 -343 213 -345 221 -2 8
126 93 338 223 l340 210 0 72 c0 40 -1 73 -2 73 -2 0 -185 -109 -408 -243z"/>
<path d="M1362 1840 c-32 -20 -62 -71 -62 -106 0 -40 34 -87 77 -106 52 -23
90 -18 133 18 40 34 54 81 38 129 -25 74 -119 107 -186 65z"/>
<path d="M2255 1730 c-3 -6 1 -7 9 -4 18 7 21 14 7 14 -6 0 -13 -4 -16 -10z"/>
<path d="M2270 1699 c0 -12 -8 -27 -17 -34 -15 -11 -16 -15 -3 -31 8 -10 10
-15 3 -11 -13 8 -39 -30 -29 -41 3 -3 6 0 6 7 0 6 11 16 25 21 22 8 25 15 25
60 0 27 -2 50 -5 50 -3 0 -5 -10 -5 -21z"/>
<path d="M2210 1625 c-7 -9 -8 -15 -2 -15 5 0 12 7 16 15 3 8 4 15 2 15 -2 0
-9 -7 -16 -15z"/>
<path d="M2168 1603 c7 -3 16 -2 19 1 4 3 -2 6 -13 5 -11 0 -14 -3 -6 -6z"/>
<path d="M2190 1590 c-13 -8 -12 -10 3 -10 9 0 17 5 17 10 0 12 -1 12 -20 0z"/>
<path d="M350 795 l0 -185 40 0 40 0 0 70 0 70 90 0 90 0 0 30 0 29 -87 3 -88
3 -3 53 -3 52 100 0 101 0 0 30 0 30 -140 0 -140 0 0 -185z"/>
<path d="M1580 795 l0 -186 137 3 137 3 1 30 0 30 -92 3 -93 3 0 149 0 150
-45 0 -45 0 0 -185z"/>
<path d="M680 760 l0 -150 35 0 c35 0 35 1 35 43 0 40 1 42 31 43 26 1 36 -6
62 -42 26 -37 36 -44 64 -44 18 0 33 2 33 5 0 3 -14 24 -30 47 -30 41 -30 43
-12 58 43 34 55 97 26 139 -25 36 -75 51 -164 51 l-80 0 0 -150z m175 80 c18
-15 20 -61 3 -78 -7 -7 -34 -12 -60 -12 l-48 0 0 56 0 57 45 -5 c25 -3 52 -11
60 -18z"/>
<path d="M1000 760 l0 -150 115 0 115 0 0 25 c0 24 -2 25 -72 25 -86 0 -101 7
-96 46 3 28 4 29 71 32 64 3 67 4 67 27 0 24 -2 25 -71 25 l-70 0 3 33 3 32
78 3 c74 3 77 4 77 27 l0 25 -110 0 -110 0 0 -150z"/>
<path d="M1289 823 c0 -49 -1 -115 -2 -148 l-2 -60 118 -3 117 -3 0 26 c0 24
-3 25 -55 26 -30 1 -64 3 -75 4 -11 1 -25 3 -31 4 -5 0 -9 16 -7 34 l3 32 68
3 c64 3 67 4 67 27 0 24 -2 25 -71 25 l-70 0 3 33 3 32 78 3 c74 3 77 4 77 27
l0 25 -110 0 -110 0 -1 -87z"/>
<path d="M1900 760 l0 -150 30 0 30 0 0 150 0 150 -30 0 -30 0 0 -150z"/>
<path d="M2040 760 l0 -150 30 0 29 0 3 93 3 92 75 -92 c61 -76 80 -93 103
-93 l27 0 0 150 0 150 -30 0 -30 0 0 -85 c0 -47 -4 -85 -9 -85 -4 0 -39 38
-77 84 -56 69 -74 85 -96 85 l-28 1 0 -150z"/>
<path d="M2388 783 c0 -71 -1 -137 -2 -148 -1 -19 6 -20 114 -20 l114 0 0 25
c0 24 -1 24 -79 25 l-80 0 0 35 0 35 68 3 c64 3 67 4 67 27 0 24 -2 25 -70 25
l-70 0 0 35 0 35 80 0 c79 0 80 0 80 25 l0 25 -110 0 -110 0 -2 -127z"/>
</g>
</svg>
